# xmcd CD database file
#
# Track frame offsets:
#	300
#	24889
#	50863
#	78724
#	106404
#	118892
#	143131
#	165843
#	192898
#
# Disc length: 2927 seconds
#
# Revision: 0
# Processed by: cddbd v1.5.1PL2 Copyright (c) Steve Scherf et al.
# Submitted via: CDex 1.51
#
DISCID=760b6b09
DTITLE=Igor Lunder with Reeds - Jazz Menu
DYEAR=2003
DGENRE=Jazz
TTITLE0=Blues Lee
TTITLE1=Jazz - Menu 1
TTITLE2=69
TTITLE3=Well, You Needn't
TTITLE4=Moj Ocka Ima Konjicka Dva
TTITLE5=House Of The Rising Sun
TTITLE6=Jazz - Menu 2
TTITLE7=You Don't Know What Love Is
TTITLE8=The Preacher
EXTD=YEAR: 2003
EXTT0=
EXTT1=
EXTT2=
EXTT3=
EXTT4=
EXTT5=
EXTT6=
EXTT7=
EXTT8=
PLAYORDER=
